<?xml version="1.0" standalone="no"?>
<!DOCTYPE svg PUBLIC "-//W3C//DTD SVG 20010904//EN"
 "http://www.w3.org/TR/2001/REC-SVG-20010904/DTD/svg10.dtd">
<svg version="1.0" xmlns="http://www.w3.org/2000/svg"
 width="512.000000pt" height="512.000000pt" viewBox="0 0 512.000000 512.000000"
 preserveAspectRatio="xMidYMid meet" class="stroke-abmer-800">
<metadata>
Created by potrace 1.16, written by Peter Selinger 2001-2019
</metadata>
<g transform="translate(0.000000,512.000000) scale(0.100000,-0.100000)"
fill="#92400e">
<path d="M2837 4578 c-9 -7 -27 -44 -40 -83 l-24 -70 -48 -7 c-58 -8 -90 -36
-82 -70 7 -27 38 -45 97 -54 35 -6 40 -10 46 -40 3 -19 7 -75 8 -125 l1 -91
-63 -24 c-93 -35 -120 -58 -153 -131 -16 -36 -48 -94 -71 -129 -34 -51 -47
-64 -68 -64 -32 0 -71 -25 -139 -89 -30 -28 -67 -53 -85 -57 -71 -15 -107 -52
-121 -127 -7 -34 -6 -35 48 -61 31 -14 60 -26 65 -26 5 0 17 -20 26 -44 10
-25 34 -60 54 -78 49 -44 46 -72 -6 -64 -21 3 -118 15 -217 26 -99 12 -188 23
-197 26 -15 4 -18 17 -18 75 l0 69 50 48 c47 45 50 51 50 98 0 60 -23 90 -76
100 -50 9 -130 -2 -167 -24 -65 -37 -67 -136 -4 -193 28 -26 32 -36 35 -98 l4
-68 -35 -7 c-47 -9 -53 -19 -62 -98 -6 -67 -7 -67 -41 -74 -21 -4 -45 -19 -64
-40 -25 -28 -30 -44 -30 -83 0 -40 5 -54 29 -80 16 -17 43 -34 60 -37 l31 -6
0 -84 c0 -45 -4 -85 -9 -89 -5 -3 -65 -17 -133 -30 -124 -25 -357 -89 -389
-106 -10 -5 -25 -17 -35 -26 -12 -13 -34 -18 -75 -18 -52 0 -62 -4 -89 -31
-57 -56 -56 -154 1 -212 40 -41 62 -47 94 -26 14 9 29 13 33 9 4 -4 3 -10 -3
-12 -5 -2 -26 -12 -45 -21 l-35 -17 -10 -132 c-14 -182 -8 -177 -185 -156
-207 25 -653 23 -628 -3 3 -2 124 -9 269 -14 238 -9 457 -25 466 -33 2 -2 -7
-22 -19 -44 l-21 -39 -81 -3 c-159 -4 -508 -58 -586 -90 -38 -15 -20 -13 232
18 128 17 274 33 325 37 l92 6 -11 -36 c-13 -43 -14 -43 -168 -50 -190 -9
-201 -24 -17 -25 l158 -1 -6 -53 c-3 -28 -7 -78 -8 -110 l-2 -59 -50 7 c-119
16 -225 25 -300 25 -90 0 -241 -17 -263 -29 -8 -5 106 -11 254 -15 148 -3 291
-9 318 -13 l48 -8 18 -65 c9 -36 21 -74 25 -84 8 -18 5 -19 -31 -12 -94 16
-313 25 -399 16 -49 -5 -96 -10 -102 -10 -7 0 -13 -4 -13 -8 0 -5 102 -12 228
-16 125 -3 253 -9 285 -13 57 -6 58 -7 93 -59 20 -30 46 -62 59 -72 23 -18 22
-19 -83 -36 -107 -17 -260 -53 -232 -55 8 -1 78 10 154 24 149 27 202 30 226
15 21 -13 15 -14 -235 -55 -395 -64 -646 -119 -608 -132 25 -9 301 29 810 112
288 47 545 85 571 85 76 0 146 12 130 21 -7 5 -30 9 -52 9 l-38 0 32 37 c18
20 43 59 55 86 l23 49 12 -39 c22 -67 48 -110 106 -173 31 -33 55 -62 53 -64
-2 -2 -62 -13 -134 -25 -452 -76 -973 -197 -756 -176 76 8 490 73 729 116 95
17 175 29 177 27 2 -2 -49 -15 -113 -28 -148 -31 -124 -38 35 -10 193 32 182
23 -47 -41 -430 -121 -447 -133 -90 -69 408 73 566 99 802 130 128 17 238 33
243 35 6 3 -54 4 -132 2 -122 -2 -139 -1 -118 11 14 7 25 21 25 33 0 11 4 18
9 14 10 -6 81 59 81 74 0 10 237 20 615 25 200 3 307 9 415 24 201 28 235 30
258 9 10 -9 25 -17 32 -17 7 0 11 -2 9 -4 -3 -3 -65 -12 -139 -21 -142 -16
-314 -45 -307 -51 2 -2 100 5 218 16 316 30 365 33 358 26 -3 -3 -93 -22 -200
-40 -525 -93 -614 -109 -749 -136 -279 -56 -323 -86 -82 -55 243 31 506 76
1392 240 195 36 418 70 535 81 39 4 77 10 85 14 20 11 -84 24 -197 25 l-92 0
42 22 c51 27 107 72 89 73 -7 0 -66 -27 -130 -60 -132 -67 -205 -91 -223 -73
-19 19 -3 44 24 38 19 -5 25 0 37 27 13 28 21 33 52 36 44 4 60 33 34 61 -37
41 2 121 58 121 14 0 30 8 35 18 8 14 44 26 148 48 123 26 133 29 89 32 -43 3
-126 -6 -212 -24 -42 -8 -65 15 -57 59 10 55 29 66 128 73 97 8 93 22 -8 23
-55 1 -58 2 -55 24 3 20 11 23 103 32 92 10 96 11 55 18 -25 4 -72 3 -105 -2
-68 -10 -81 -7 -88 19 -7 27 3 69 17 65 6 -2 54 -6 106 -9 85 -5 92 -4 70 8
-14 8 -50 17 -82 21 -49 6 -57 10 -62 31 -10 38 1 46 52 39 26 -3 65 -8 87
-10 l40 -5 -39 15 c-21 8 -68 18 -105 21 -74 7 -91 20 -91 71 0 22 6 36 20 43
14 7 20 21 20 45 0 29 -4 35 -34 45 -28 9 -37 19 -49 54 -13 37 -13 46 0 70 9
18 13 40 9 61 -6 28 -12 35 -39 40 -39 9 -57 22 -57 43 0 12 11 14 70 9 48 -4
70 -2 70 5 0 39 -135 191 -207 233 -27 16 -33 26 -33 52 0 23 -7 37 -23 47
-39 26 -148 47 -284 53 -131 6 -133 6 -133 29 0 22 -4 24 -50 24 -45 0 -50 2
-56 26 -9 35 2 119 27 211 16 58 20 96 17 154 -9 161 -86 209 -335 209 -84 0
-135 -5 -158 -14 -30 -13 -34 -13 -42 2 -4 9 -8 105 -8 212 -1 313 -28 381
-185 476 -46 27 -90 61 -99 75 -8 13 -23 34 -34 46 -14 16 -17 29 -12 52 6 31
7 31 69 31 70 0 106 18 106 54 0 28 -43 70 -92 91 -37 15 -38 16 -38 71 0 50
-4 60 -33 89 -22 22 -48 36 -85 44 -70 15 -174 14 -195 -1z m211 -33 c59 -18
72 -36 72 -96 l0 -42 -77 7 c-43 4 -113 9 -156 13 l-79 6 7 46 c8 53 13 64 26
56 5 -4 12 1 15 9 8 21 122 22 192 1z m-128 -136 c25 -5 77 -14 117 -19 70 -9
192 -58 166 -67 -7 -3 -44 2 -82 11 -86 20 -158 20 -236 1 -79 -19 -147 -19
-193 1 -35 15 -36 16 -18 30 22 16 29 17 186 15 77 0 108 2 95 8 -11 5 -53 10
-92 10 -42 1 -73 5 -73 11 0 13 71 12 130 -1z m89 -125 c11 -15 18 -31 14 -37
-4 -6 -7 -36 -9 -66 -1 -52 -4 -58 -43 -93 -30 -26 -56 -39 -88 -44 -52 -8
-63 2 -63 54 0 26 4 32 21 32 11 0 18 -4 15 -8 -2 -4 -1 -14 4 -21 10 -16 30
-6 30 16 0 11 7 14 25 11 30 -6 31 1 5 35 -25 32 -50 40 -83 28 -20 -8 -27 -7
-31 5 -3 9 -2 23 4 32 5 10 10 13 10 8 0 -6 6 -1 14 9 12 17 16 17 30 6 24
-20 74 2 56 24 -10 12 -8 17 11 24 39 16 56 12 78 -15z m-169 -4 c0 -5 -7 -10
-15 -10 -8 0 -15 5 -15 10 0 6 7 10 15 10 8 0 15 -4 15 -10z m254 -5 c9 -25
-14 -75 -35 -75 -11 0 -19 7 -19 17 0 9 3 13 7 10 10 -11 33 13 33 34 0 22
-11 24 -28 7 -7 -7 -12 -8 -12 -2 0 26 44 34 54 9z m-204 -115 c11 -7 4 -10
-25 -10 -29 0 -36 3 -25 10 8 5 20 10 25 10 6 0 17 -5 25 -10z m151 -70 c-12
-27 -21 -59 -21 -72 0 -25 -69 -152 -70 -128 0 8 -11 39 -25 68 -23 49 -23 52
-5 52 29 0 115 90 125 130 5 25 9 29 12 17 3 -10 -5 -40 -16 -67z m98 -115
c-6 -32 -11 -60 -13 -62 -1 -1 -17 3 -34 9 -41 16 -57 6 -97 -55 -55 -84 -56
-85 -49 -57 4 14 28 56 53 93 64 94 100 166 102 202 1 28 2 27 24 -20 21 -45
22 -56 14 -110z m56 37 c7 -4 1 -25 -17 -57 -30 -54 -34 -49 -17 21 12 45 16
49 34 36z m-365 -8 c0 -21 -56 -94 -72 -94 -17 0 -7 40 18 69 23 27 54 42 54
25z m88 -93 c13 -24 21 -52 19 -64 -3 -19 -6 -17 -19 13 -8 19 -18 43 -21 53
-4 11 -17 17 -36 17 -18 0 -34 -7 -40 -17 -23 -40 -9 3 16 49 l27 49 15 -29
c9 -16 26 -48 39 -71z m-175 29 c-4 -34 -2 -50 5 -50 8 0 9 -7 2 -22 -5 -13
-16 -61 -25 -107 -8 -47 -17 -86 -19 -88 -2 -2 -7 15 -10 39 -4 24 -14 57 -22
73 l-14 30 5 -42 c4 -35 2 -44 -17 -57 -12 -9 -38 -16 -57 -16 l-34 0 23 -25
c33 -35 20 -40 -34 -13 -52 25 -54 30 -27 55 21 20 91 148 91 167 0 20 79 86
104 86 3 0 -2 -16 -10 -35 -10 -26 -12 -44 -5 -68 8 -29 9 -30 10 -6 1 28 29
129 36 129 2 0 1 -22 -2 -50z m522 41 c3 -5 -4 -12 -15 -16 -11 -3 -36 -25
-55 -48 -32 -38 -35 -39 -25 -13 25 67 75 108 95 77z m68 -61 c55 -65 60 -172
16 -304 -50 -150 -130 -201 -345 -221 l-71 -7 -6 38 c-3 20 -16 47 -27 59
l-22 23 59 16 c32 9 81 25 108 36 28 11 64 20 81 20 33 0 77 -29 95 -62 9 -17
8 -18 -8 -10 -25 13 -95 23 -88 12 6 -9 92 -40 113 -40 23 0 5 51 -29 83 -18
17 -40 27 -59 27 -17 0 -30 4 -30 8 0 15 24 32 44 32 16 0 18 2 7 9 -10 6 -2
15 30 35 45 28 21 27 -33 -1 -16 -7 -28 -10 -28 -6 0 13 40 75 77 121 44 54
31 54 -23 1 l-42 -41 7 39 c16 82 76 163 122 163 18 0 36 -10 52 -30z m-510
-60 c-13 -172 -14 -204 -4 -190 6 8 11 28 11 44 0 47 21 156 30 156 14 0 61
-93 64 -127 3 -45 13 -51 21 -14 6 30 98 141 116 141 5 0 10 -19 10 -42 l1
-43 12 50 c10 41 16 49 32 47 10 -2 21 -6 23 -8 2 -2 -1 -35 -8 -73 -6 -39
-11 -83 -11 -99 0 -25 -5 -30 -31 -36 -17 -3 -60 -6 -95 -6 l-64 0 0 -55 c0
-51 -2 -56 -27 -66 -16 -6 -58 -14 -95 -16 l-68 -6 0 94 c0 84 9 167 26 252 5
23 10 28 32 25 22 -2 27 -8 25 -28z m-328 -200 c20 0 76 -50 69 -62 -4 -5 -21
5 -40 23 -41 39 -53 34 -25 -12 12 -19 21 -45 20 -59 0 -24 0 -24 -14 -5 -8
11 -21 29 -29 40 -15 20 -15 20 -9 -3 13 -51 -65 -83 -102 -42 -10 11 -30 20
-44 20 l-25 0 21 22 c17 16 35 22 76 22 30 1 53 5 50 9 -3 5 -23 7 -44 5 -36
-3 -37 -2 -22 14 18 20 71 38 91 32 8 -2 20 -4 27 -4z m600 -31 c-11 -6 -29
-22 -40 -35 -12 -14 -36 -26 -62 -30 l-43 -7 0 39 0 39 83 2 c63 2 77 0 62 -8z
m-396 -106 c1 -13 -5 -23 -13 -23 -7 0 -20 -9 -27 -20 -12 -17 -17 -18 -37 -7
l-23 13 42 48 c38 42 44 46 50 30 4 -11 8 -29 8 -41z m-798 16 c17 -17 20 -29
15 -58 -8 -49 -37 -71 -97 -71 -26 0 -60 -5 -75 -12 -23 -11 -28 -10 -41 7
-19 28 -26 60 -19 91 15 56 172 88 217 43z m391 -30 c-2 -15 8 -16 87 -11 73
4 102 1 161 -17 40 -12 70 -24 68 -27 -3 -2 -25 3 -49 13 -31 12 -77 17 -159
17 -99 1 -120 -2 -150 -19 -27 -16 -36 -29 -38 -53 -2 -18 -8 -32 -13 -32 -19
0 -22 34 -7 77 9 24 11 43 6 43 -12 0 -38 -63 -38 -91 0 -18 -2 -19 -15 -9
-32 27 -8 94 39 109 78 24 112 24 108 0z m590 -48 c10 -14 18 -34 16 -45 -3
-18 -9 -21 -47 -18 -38 3 -47 0 -67 -25 -26 -31 -32 -16 -14 31 5 15 6 26 0
26 -5 0 -14 -16 -21 -35 -7 -19 -18 -34 -24 -32 -15 5 -18 52 -5 77 15 28 -5
26 -24 -2 -9 -12 -16 -30 -16 -40 0 -10 -7 -18 -15 -18 -19 0 -19 23 0 60 22
43 42 51 124 47 63 -2 76 -6 93 -26z m-438 -31 c6 -6 3 -12 -7 -16 -17 -6 -35
-4 -127 12 l-45 9 45 6 c52 8 121 2 134 -11z m961 -160 c9 -27 -27 -43 -79
-36 -23 4 -71 20 -107 37 -83 40 -142 46 -208 24 -64 -21 -61 -30 3 -14 40 10
58 9 112 -6 35 -9 64 -20 64 -24 0 -8 -337 -8 -345 1 -4 4 5 20 21 36 16 15
34 35 39 45 8 14 30 19 122 24 l111 6 53 -42 c29 -23 62 -44 74 -47 24 -6 85
20 85 36 0 13 -7 13 -32 -1 -15 -8 -11 2 16 36 20 27 36 53 37 59 0 6 7 -17
14 -52 8 -35 17 -71 20 -82z m-1105 110 c0 -5 -7 -10 -16 -10 -8 0 -12 5 -9
10 3 6 10 10 16 10 5 0 9 -4 9 -10z m315 -6 c23 -23 11 -29 -19 -9 -14 9 -30
14 -35 11 -5 -4 -12 -2 -16 4 -10 17 52 11 70 -6z m-138 -26 c-3 -18 -13 -50
-21 -70 -14 -34 -20 -38 -51 -38 -31 0 -37 4 -51 38 -8 20 -18 52 -21 70 l-6
32 78 0 78 0 -6 -32z m-669 -2 c2 -10 1 -47 -3 -82 -9 -85 -30 -86 -39 -3 -10
103 -9 111 16 107 13 -2 24 -11 26 -22z m825 -31 c19 5 25 2 30 -14 4 -18 1
-21 -23 -21 -32 0 -60 23 -60 48 1 15 2 15 14 -1 10 -13 21 -16 39 -12z m207
11 c-12 -15 -50 -30 -105 -41 -27 -5 -31 -3 -33 19 -2 25 0 25 42 20 25 -4 52
-2 62 5 29 16 49 14 34 -3z m-520 -52 c11 -26 20 -52 20 -58 -1 -19 -70 66
-70 86 0 34 29 18 50 -28z m1503 35 c21 -5 53 -24 72 -40 61 -54 70 -136 30
-269 -14 -46 -28 -125 -31 -176 l-7 -94 37 0 c20 0 36 -4 36 -10 0 -6 -34 -10
-82 -10 -49 0 -78 4 -73 9 6 5 19 11 30 13 17 3 21 14 28 83 4 44 19 121 32
171 44 163 28 257 -50 290 -74 31 -297 30 -379 -2 -10 -4 -16 -1 -16 9 0 8 12
20 28 25 36 14 297 15 345 1z m-1269 -14 c3 -9 0 -15 -9 -15 -9 0 -12 6 -9 15
4 8 7 15 9 15 2 0 5 -7 9 -15z m-39 -35 c-3 -5 -11 -10 -16 -10 -6 0 -7 5 -4
10 3 6 11 10 16 10 6 0 7 -4 4 -10z m305 0 c0 -5 -4 -10 -10 -10 -5 0 -10 5
-10 10 0 6 5 10 10 10 6 0 10 -4 10 -10z m1013 -13 c63 -41 74 -110 38 -227
-11 -36 -26 -101 -32 -145 -18 -132 -15 -125 -57 -125 l-37 0 2 152 2 153 -19
-150 c-21 -174 -18 -155 -30 -155 -6 0 -11 62 -12 163 -1 89 -3 144 -5 122 -1
-22 -8 -85 -15 -140 l-12 -100 -14 50 c-17 60 -52 100 -101 116 -20 7 -39 17
-43 23 -14 21 -8 127 8 162 24 50 58 64 159 64 123 0 150 -17 181 -115 l13
-40 0 33 c1 47 -22 96 -57 121 -26 18 -44 21 -139 21 -125 0 -144 -8 -174 -74
-20 -45 -25 -136 -9 -167 9 -16 7 -19 -9 -19 -25 0 -36 64 -27 156 14 134 33
146 226 142 110 -2 141 -6 163 -21z m-1283 -22 c-7 -9 -15 -13 -18 -10 -3 2 1
11 8 20 7 9 15 13 18 10 3 -2 -1 -11 -8 -20z m170 9 c0 -3 -9 -18 -20 -34 -20
-28 -80 -50 -134 -50 -33 0 -33 5 7 50 30 36 36 38 90 39 31 1 57 -2 57 -5z
m545 -49 c108 -29 135 -38 135 -47 0 -10 -19 -6 -98 23 -80 29 -96 22 -22 -9
81 -35 110 -53 110 -69 0 -8 -14 -3 -36 12 -53 36 -139 65 -193 65 -115 0
-221 -36 -260 -87 -22 -30 -27 -20 -12 20 10 27 53 50 132 71 47 13 50 15 21
15 -18 1 -59 -7 -92 -16 -50 -15 -60 -22 -68 -48 l-9 -30 -22 37 c-21 35 -64
58 -108 58 -7 0 -10 7 -7 15 8 21 442 13 529 -10z m-815 -10 c11 -13 7 -15
-26 -16 l-39 -1 44 -14 c60 -19 60 -22 -1 -16 -63 5 -74 13 -59 41 14 25 62
29 81 6z m-636 -62 c-12 -38 -42 -162 -66 -276 -33 -155 -48 -211 -61 -218
-16 -9 -17 7 -16 238 1 136 4 262 8 278 6 29 8 30 81 36 41 3 75 6 76 7 0 1
-10 -28 -22 -65z m412 2 c353 -41 423 -56 470 -97 57 -51 68 -81 69 -188 0
-106 -17 -151 -64 -169 -14 -5 -102 -12 -196 -16 -93 -3 -248 -13 -343 -21
-96 -9 -176 -14 -178 -12 -2 3 14 52 36 111 55 145 54 230 -3 267 -12 8 -49
19 -83 25 l-60 10 13 63 c11 46 19 62 31 62 10 0 148 -16 308 -35z m569 21
c46 -20 44 -28 -5 -20 -70 11 -72 1 -13 -61 30 -31 52 -59 48 -63 -3 -3 -16 5
-28 19 -34 40 -100 87 -133 95 -49 12 -51 18 -9 30 55 17 99 17 140 0z m461
-11 c87 -26 137 -107 113 -182 -9 -27 -25 -40 -110 -83 -97 -50 -129 -56 -129
-26 0 18 60 71 129 116 59 38 54 55 -6 19 -122 -73 -171 -127 -157 -172 4 -12
19 -38 33 -57 l26 -34 -32 22 c-18 13 -35 27 -38 32 -10 17 -25 11 -25 -10 0
-11 4 -19 8 -18 4 2 24 -6 44 -16 31 -17 37 -26 42 -63 8 -58 18 -421 11 -408
-3 6 -17 42 -30 80 l-26 70 5 -75 c10 -155 -30 2 -49 195 l-12 120 -2 -145
c-2 -164 -2 -164 -61 3 -15 43 -31 81 -35 85 -4 4 -5 -22 -2 -57 4 -47 17 -87
50 -155 l44 -92 -28 4 c-16 2 -29 2 -29 -1 0 -2 34 -24 76 -48 69 -40 104 -76
104 -108 0 -6 -30 6 -66 26 -55 30 -79 37 -141 41 -61 4 -73 7 -68 20 3 8 8
111 11 229 6 211 -9 463 -27 463 -5 0 -11 -17 -14 -37 -11 -62 -13 -61 -14 2
-1 59 1 63 47 116 124 147 220 185 358 144z m-461 -40 c17 -13 26 -24 20 -24
-5 0 -23 11 -40 24 -16 14 -25 25 -20 25 6 0 24 -11 40 -25z m-1158 -176 c-3
-50 -8 -94 -11 -97 -12 -11 -56 19 -71 49 -33 63 5 134 74 138 11 1 13 -16 8
-90z m329 74 c-4 -9 -30 -98 -58 -198 -28 -99 -58 -186 -66 -192 -11 -9 -47
-12 -111 -11 -86 2 -89 2 -26 5 39 2 73 7 77 11 4 4 21 79 38 167 49 252 42
235 101 235 44 0 50 -2 45 -17z m1593 -67 c32 -17 51 -54 51 -101 0 -43 -40
-92 -97 -117 -41 -18 -192 -38 -283 -37 l-45 0 40 13 c92 30 284 130 273 142
-2 2 -69 -25 -148 -61 -187 -83 -206 -71 -36 22 72 39 110 79 121 126 7 24 11
27 52 27 24 0 56 -6 72 -14z m189 -237 c-3 -20 -12 -25 -71 -35 -118 -22 -207
-95 -223 -183 -10 -58 -23 -72 -24 -26 0 108 93 210 238 261 70 24 86 21 80
-17z m152 -9 c0 -6 -27 -10 -60 -10 -33 0 -60 4 -60 10 0 6 27 10 60 10 33 0
60 -4 60 -10z m468 -24 c57 -16 82 -31 82 -51 0 -10 -12 -8 -49 6 -142 54
-330 24 -487 -76 -164 -105 -275 -266 -320 -464 -8 -37 -22 -72 -31 -78 -10
-8 -46 -13 -85 -13 l-68 0 0 38 c0 119 102 360 191 454 54 57 56 49 4 -17 -55
-69 -50 -72 16 -9 146 139 238 188 414 223 66 13 267 6 333 -13z m-1549 -43
c28 -76 61 -185 61 -200 0 -7 -6 -13 -13 -13 -9 0 -19 22 -27 58 -7 31 -23 87
-36 123 -26 72 -29 89 -15 89 5 0 18 -26 30 -57z m-385 -13 c-5 -5 -129 -25
-274 -45 -146 -19 -303 -41 -350 -50 -47 -8 -91 -15 -99 -15 -8 0 -12 -2 -9
-5 3 -4 59 1 124 9 136 17 381 40 599 56 177 13 215 6 252 -49 29 -43 31 -109
4 -142 -18 -23 -21 -23 -77 -11 -228 50 -364 31 -511 -74 -86 -62 -155 -149
-218 -279 -60 -123 -140 -226 -183 -236 -15 -4 -129 -7 -254 -8 -186 -1 -228
2 -228 13 0 13 -95 26 -193 26 -22 0 -37 3 -33 7 3 4 113 6 244 4 189 -2 240
0 249 11 11 13 33 218 33 306 0 49 0 49 -43 66 -33 12 -80 16 -215 16 -140 0
-172 3 -172 14 0 21 33 26 181 26 123 0 139 -2 163 -21 18 -14 37 -19 63 -17
l38 3 13 94 c10 69 10 97 2 105 -6 6 -67 13 -146 16 l-136 5 26 38 c14 20 21
37 16 37 -12 0 -60 -63 -60 -78 0 -8 -26 -12 -80 -12 -77 0 -80 1 -70 20 6 12
32 26 68 35 31 9 77 23 101 31 25 8 46 12 49 10 2 -3 16 0 30 5 60 23 229 49
318 49 52 0 193 9 312 20 343 31 483 37 466 20z m990 -57 c-13 -25 -24 -65
-25 -87 0 -37 -1 -39 -11 -18 -10 20 -18 22 -94 22 -46 0 -85 4 -88 8 -12 20
-18 112 -7 112 7 0 11 -20 11 -50 l0 -50 69 0 c71 0 101 14 101 46 0 16 44 64
58 64 5 0 -1 -21 -14 -47z m-190 12 c-4 -8 -8 -15 -10 -15 -2 0 -4 7 -4 15 0
8 4 15 10 15 5 0 7 -7 4 -15z m1081 -81 c25 -12 26 -13 5 -8 -14 3 -61 7 -105
9 -70 3 -73 3 -25 -4 30 -4 66 -11 79 -16 22 -7 23 -8 6 -17 -14 -8 -15 -12
-4 -19 29 -17 -2 -19 -57 -3 -80 23 -165 15 -248 -24 -37 -17 -66 -27 -66 -21
0 5 8 13 18 17 9 4 36 20 60 36 85 58 266 85 337 50z m75 -54 c0 -5 -2 -10 -4
-10 -3 0 -8 5 -11 10 -3 6 -1 10 4 10 6 0 11 -4 11 -10z m-1565 -10 c15 -6 8
-9 -27 -9 -27 -1 -48 4 -48 9 0 12 47 12 75 0z m1637 -7 c10 -9 18 -22 18 -30
0 -11 -8 -9 -30 7 -31 22 -39 40 -18 40 6 0 20 -7 30 -17z m-1135 -10 c4 -11
-1 -21 -15 -31 -20 -13 -20 -15 -6 -55 10 -28 18 -110 24 -247 9 -214 21 -295
49 -309 9 -5 35 -12 59 -16 50 -8 57 -19 97 -149 21 -72 24 -91 13 -97 -15
-10 -198 -12 -223 -3 -8 4 -23 20 -31 36 -14 27 -14 34 0 69 18 45 20 115 5
174 -5 22 -13 140 -18 261 l-8 221 -36 78 c-20 42 -37 79 -37 81 0 2 27 4 60
4 48 0 62 -4 67 -17z m48 -21 c-6 -7 -35 18 -35 31 0 5 9 2 20 -8 11 -10 18
-20 15 -23z m-2365 13 c80 -41 48 -185 -41 -185 -37 0 -79 51 -79 95 0 83 54
124 120 90z m3168 3 c17 -17 15 -42 -6 -61 -15 -14 -31 -16 -78 -11 -37 3 -85
0 -129 -9 -69 -15 -69 -15 -45 4 20 16 21 18 5 13 -11 -4 -26 -11 -32 -17 -9
-6 -13 -6 -13 1 0 16 61 60 106 76 49 18 175 21 192 4z m-952 -163 c15 -67 14
-121 -2 -205 -5 -23 -4 -31 4 -26 7 4 13 -14 16 -51 4 -32 11 -93 17 -136 16
-121 -1 -138 -166 -163 -106 -16 -248 -18 -276 -4 -16 9 -19 22 -19 85 0 136
-38 252 -94 286 -17 10 -52 22 -78 25 -27 4 -48 10 -48 15 0 16 94 9 130 -9
63 -31 107 -139 118 -290 l7 -87 75 -3 c102 -5 173 12 217 51 47 41 62 81 70
176 7 91 -1 135 -22 127 -11 -4 -12 0 -4 22 6 14 14 32 20 38 6 7 6 62 -1 150
-5 77 -10 146 -9 154 0 19 24 -62 45 -155z m-1716 135 c0 -19 -7 -20 -210 -20
-203 0 -210 1 -210 20 0 19 7 20 210 20 203 0 210 -1 210 -20z m1365 0 c-3 -5
-35 -10 -71 -10 -36 0 -64 4 -64 10 0 6 30 10 71 10 44 0 68 -4 64 -10z m992
-35 c-2 -30 -4 -33 -14 -19 -9 12 -9 22 -2 35 14 27 18 24 16 -16z m716 -58
c-3 -5 -14 4 -24 20 -27 40 -23 53 6 19 13 -17 21 -34 18 -39z m-3079 31 c14
-23 -8 -68 -33 -68 -38 0 -47 51 -13 78 19 15 32 12 46 -10z m-94 -3 c0 -13
-24 -15 -160 -15 -90 0 -160 4 -160 9 0 17 23 19 173 20 124 1 147 -1 147 -14z
m1342 -2 c24 -27 31 -62 18 -78 -19 -23 -27 -18 -27 17 0 22 -8 38 -27 55
l-27 23 24 0 c13 0 31 -8 39 -17z m1663 -12 c143 -65 251 -351 230 -611 -23
-287 -166 -531 -311 -530 -43 1 -105 32 -140 72 -117 134 -175 475 -116 683
44 151 119 257 208 291 41 16 47 16 89 0 221 -85 278 -572 97 -841 -52 -76
-94 -105 -153 -105 -58 0 -72 15 -22 23 82 14 162 105 210 240 34 97 44 290
19 386 -61 238 -206 321 -326 184 -128 -145 -159 -457 -66 -666 48 -109 117
-183 176 -187 62 -5 79 1 129 46 169 152 218 553 97 793 -99 194 -261 214
-388 46 -83 -109 -124 -273 -115 -461 8 -183 57 -338 143 -456 40 -53 40 -69
1 -43 -82 53 -167 273 -182 470 -20 266 107 580 267 659 61 31 98 32 153 7z
m-499 -29 c50 22 141 30 177 16 17 -7 16 -10 -4 -38 -21 -27 -28 -30 -80 -30
-32 0 -60 -4 -63 -9 -3 -5 -16 -7 -29 -4 -18 4 -19 3 -7 -6 12 -8 12 -11 2
-11 -16 0 -127 -67 -142 -85 -25 -30 12 -23 76 15 65 38 163 68 184 55 6 -3 3
-19 -7 -39 -14 -30 -20 -34 -70 -39 -30 -3 -84 -20 -120 -37 -71 -33 -68 -33
-98 22 -21 38 -19 57 12 124 l26 59 8 -47 c12 -75 17 -79 69 -46 47 30 48 38
1 13 l-28 -14 -17 56 c-19 69 -6 86 35 47 l26 -24 49 22z m-1208 -37 c15 -46
9 -97 -14 -116 -28 -23 -54 22 -54 90 0 64 5 73 35 69 13 -2 24 -16 33 -43z
m-298 -75 c0 -53 -4 -90 -10 -90 -6 0 -10 37 -10 90 0 53 4 90 10 90 6 0 10
-37 10 -90z m-73 -57 c-2 -21 -4 -4 -4 37 0 41 2 58 4 38 2 -21 2 -55 0 -75z
m204 57 c9 -25 20 -60 24 -77 6 -30 5 -33 -18 -33 -20 0 -30 10 -51 52 -29 58
-32 78 -14 96 22 22 42 8 59 -38z m-1065 7 c4 -4 3 -12 -3 -18 -7 -7 -75 -8
-217 -3 -188 6 -229 12 -193 28 18 8 405 2 413 -7z m1512 -1 c35 -18 57 -43
70 -81 9 -26 11 -27 11 -7 1 25 10 28 31 10 8 -7 -5 9 -30 36 -43 46 -43 47
-14 32 48 -24 94 -66 94 -86 0 -25 -18 -36 -65 -42 -35 -5 -41 -3 -42 13 -4
43 -66 105 -128 127 l-30 10 38 1 c21 1 50 -5 65 -13z m-33 -36 c26 -16 75
-84 75 -104 0 -20 -33 0 -57 34 -15 22 -31 40 -35 40 -10 0 32 -67 60 -98 23
-24 27 -25 108 -19 97 7 115 -8 22 -18 -97 -10 -135 7 -174 77 -18 31 -30 59
-26 62 7 8 -62 36 -90 37 -22 0 -22 1 -3 9 27 12 83 3 120 -20z m-125 -4 c0
-2 -11 -6 -25 -8 -13 -3 -22 -1 -19 3 5 9 44 13 44 5z m-1820 -26 c0 -5 -9
-10 -20 -10 -11 0 -20 5 -20 10 0 6 9 10 20 10 11 0 20 -4 20 -10z m470 -12
c0 -16 -12 -18 -138 -18 -182 0 -292 9 -292 25 0 9 54 12 215 12 200 -1 215
-2 215 -19z m2897 -20 c116 -123 138 -388 49 -584 -57 -124 -171 -199 -221
-144 -17 19 -17 19 14 7 28 -10 37 -9 79 13 84 45 142 154 164 311 19 132 -19
281 -96 382 -41 54 -35 63 11 15z m-1877 -23 c0 -5 -5 -3 -10 5 -5 8 -10 20
-10 25 0 6 5 3 10 -5 5 -8 10 -19 10 -25z m1223 -34 c21 -56 24 -76 17 -103
-17 -56 -11 -55 22 4 38 72 106 119 179 126 27 2 49 2 49 -2 0 -4 -6 -22 -14
-40 -12 -28 -20 -34 -53 -38 -52 -7 -101 -31 -151 -73 l-39 -34 -47 76 c-46
75 -56 100 -35 87 14 -8 29 14 29 44 0 41 18 22 43 -47z m-2713 39 c0 -5 -9
-10 -20 -10 -11 0 -20 5 -20 10 0 6 9 10 20 10 11 0 20 -4 20 -10z m1340 -25
c30 -8 96 -15 145 -15 131 -1 201 -39 239 -132 26 -61 18 -67 -14 -11 -16 28
-46 64 -66 80 -33 25 -46 28 -148 33 -61 4 -121 12 -133 18 -11 6 -53 15 -92
18 -40 4 -74 11 -77 15 -8 14 86 10 146 -6z m-870 -10 c0 -13 -31 -15 -215
-15 -184 0 -215 2 -215 15 0 13 31 15 215 15 184 0 215 -2 215 -15z m704 9
c29 -11 17 -24 -21 -24 -51 -1 -126 -19 -135 -33 -10 -17 1 -29 23 -22 27 9
59 -3 59 -22 0 -13 -3 -13 -15 -3 -10 9 -31 11 -62 6 -49 -7 -136 -43 -129
-54 2 -4 -8 -16 -22 -27 l-26 -19 21 29 c44 61 156 148 211 165 34 10 75 12
96 4z m2131 -48 c97 -100 110 -299 31 -455 -63 -123 -157 -157 -201 -72 -39
76 -59 243 -30 255 20 7 19 33 -2 45 -16 8 -16 16 -5 80 17 98 39 150 76 172
51 31 84 25 131 -25z m-3310 24 c-3 -5 -13 -10 -21 -10 -8 0 -14 5 -14 10 0 6
9 10 21 10 11 0 17 -4 14 -10z m1335 -35 c0 -8 -2 -15 -4 -15 -2 0 -6 7 -10
15 -3 8 -1 15 4 15 6 0 10 -7 10 -15z m-870 -27 c0 -21 -2 -21 -127 -15 -71 4
-165 7 -210 7 -67 0 -83 3 -83 15 0 13 30 15 210 15 208 0 210 0 210 -22z
m-465 2 c-3 -5 -15 -10 -26 -10 -10 0 -19 5 -19 10 0 6 12 10 26 10 14 0 23
-4 19 -10z m1950 -186 c10 -8 31 -14 47 -14 15 0 28 -4 28 -10 0 -17 -76 -11
-100 8 -21 17 -23 26 -21 97 3 108 15 118 21 16 5 -66 10 -86 25 -97z m-1080
135 c-29 -35 -89 -148 -82 -155 2 -3 10 8 16 23 9 22 29 35 89 61 92 39 140
43 72 7 -25 -13 -53 -24 -62 -25 -10 0 -42 -20 -72 -45 l-56 -45 -6 25 c-10
42 3 70 61 129 60 61 82 75 40 25z m595 0 c0 -11 -4 -17 -10 -14 -5 3 -10 15
-10 26 0 11 5 17 10 14 6 -3 10 -15 10 -26z m175 11 c22 -25 15 -34 -16 -21
-13 5 -32 12 -42 15 -10 3 -15 10 -12 16 10 17 51 11 70 -10z m1305 5 c0 -16
-40 -67 -94 -118 -59 -56 -60 -57 -12 -22 62 45 86 58 86 46 0 -5 -25 -24 -55
-41 -30 -17 -57 -36 -60 -41 -4 -5 -10 -7 -14 -4 -5 2 -30 -18 -55 -45 -26
-28 -49 -50 -51 -50 -15 0 -85 106 -85 127 0 24 3 22 31 -18 42 -60 59 -72 76
-57 26 21 35 48 23 63 -30 36 115 163 188 165 12 0 22 -2 22 -5z m-256 -52
c33 -58 20 -79 -19 -29 -18 24 -25 42 -20 56 3 11 8 20 10 20 2 0 15 -21 29
-47z m-2694 27 c0 -5 -9 -10 -20 -10 -11 0 -20 5 -20 10 0 6 9 10 20 10 11 0
20 -4 20 -10z m456 -1 c16 -26 -18 -30 -215 -23 -158 6 -201 10 -201 21 0 10
40 13 204 13 137 0 207 -4 212 -11z m886 -50 c75 -38 155 -171 184 -310 49
-230 -54 -507 -204 -549 -87 -24 -158 -3 -227 65 -43 43 -46 33 -5 -17 54 -66
143 -93 227 -69 41 12 74 -8 57 -36 -32 -55 -164 -74 -240 -35 -123 63 -214
264 -214 472 0 166 48 306 137 401 98 105 184 129 285 78z m-1402 -4 c0 -8 -4
-15 -10 -15 -5 0 -10 7 -10 15 0 8 5 15 10 15 6 0 10 -7 10 -15z m1687 4 c38
-14 90 -66 116 -114 15 -30 22 -69 28 -155 4 -63 8 -115 8 -116 1 0 15 1 31 4
21 3 30 10 30 23 0 17 9 19 100 19 84 0 100 2 100 16 0 13 -15 15 -105 12 -79
-2 -105 0 -105 10 0 9 28 12 105 12 113 0 151 19 43 22 -35 0 -67 2 -73 3 -5
2 -23 4 -40 5 -16 2 22 6 85 10 63 4 117 5 119 4 2 -2 0 -41 -5 -86 l-9 -83
-35 -2 c-19 -2 -73 -6 -118 -9 l-84 -6 23 -24 c32 -34 109 -56 196 -57 75 0
75 0 52 -18 -54 -42 -160 -38 -217 8 -20 16 -46 44 -57 61 -19 29 -24 31 -83
32 -63 0 -102 12 -102 30 0 6 28 10 61 10 l61 0 -4 103 c-4 120 -28 181 -91
231 -32 26 -48 31 -95 32 -76 2 -76 2 -62 19 15 18 85 20 127 4z m1070 -66
c26 -21 27 -58 1 -48 -23 9 -58 70 -58 101 l1 29 15 -30 c9 -16 27 -40 41 -52z
m-2811 -38 c-4 -25 -11 -43 -16 -40 -9 5 -12 -11 -24 -98 -5 -37 -4 -37 17
-22 38 26 43 15 8 -15 -43 -37 -61 -26 -61 36 0 49 27 127 41 118 5 -3 9 2 9
10 0 22 20 70 26 63 4 -3 3 -27 0 -52z m271 49 c21 -6 22 -10 16 -73 -6 -68
-16 -84 -45 -77 -10 2 -18 -2 -18 -9 0 -16 123 -29 149 -16 19 11 31 51 31
107 l0 34 139 0 c77 0 151 -4 165 -10 24 -9 26 -14 26 -79 0 -48 -4 -72 -15
-81 -11 -9 -76 -11 -257 -8 l-243 5 -90 34 -90 35 -3 39 c-2 21 -1 54 3 72 l6
33 102 0 c56 0 112 -3 124 -6z m1387 -10 c3 -8 2 -12 -4 -9 -6 3 -10 10 -10
16 0 14 7 11 14 -7z m-589 -4 c3 -6 -4 -10 -17 -10 -29 0 -111 -51 -150 -92
-18 -20 -28 -25 -28 -15 0 21 97 106 129 113 14 3 31 7 36 9 18 6 24 5 30 -5z
m-697 -70 c3 -52 -9 -76 -32 -67 -12 5 -16 20 -16 55 0 53 6 64 30 60 10 -2
16 -17 18 -48z m2662 36 c0 -2 -21 -16 -47 -31 -27 -16 -68 -44 -92 -63 -24
-20 -40 -29 -35 -20 23 39 174 138 174 114z m-2165 -69 c-1 -67 -23 -177 -36
-177 -23 0 -28 41 -14 110 12 58 39 130 48 130 1 0 2 -28 2 -63z m843 -7 c3
-21 2 -22 -12 -11 -19 16 -21 44 -3 39 6 -3 14 -15 15 -28z m-732 -43 c-11 -7
-44 -32 -75 -57 -41 -32 -52 -38 -40 -20 17 27 104 90 123 89 6 0 2 -6 -8 -12z
m1282 -56 c13 -32 33 -70 46 -84 26 -28 110 -57 165 -57 51 0 81 -10 81 -26 0
-11 -27 -14 -136 -14 -74 0 -144 5 -154 10 -23 12 -37 60 -46 158 -9 93 11 99
44 13z m-2333 -80 l6 -24 18 29 c10 16 26 36 36 44 15 11 13 7 -5 -19 -13 -19
-29 -57 -36 -85 -8 -32 -13 -41 -13 -26 -1 14 -8 34 -16 44 -10 14 -15 42 -14
90 l1 71 9 -50 c4 -27 11 -61 14 -74z m997 51 c-42 -42 -72 -113 -72 -170 l0
-35 34 45 c19 25 42 48 51 52 9 3 0 -13 -19 -37 -19 -24 -46 -66 -59 -94 l-23
-51 -24 77 c-13 42 -25 108 -27 146 -2 53 0 63 7 42 5 -16 14 -35 20 -43 7 -7
9 -25 6 -38 -13 -51 12 -33 38 26 15 34 43 77 63 95 49 47 54 34 5 -15z m2128
39 c0 -5 -40 -44 -90 -85 -49 -42 -90 -73 -90 -69 0 10 162 163 172 163 4 0 8
-4 8 -9z m-2822 -50 c7 -21 21 -46 32 -56 11 -10 20 -29 20 -42 0 -13 5 -33
10 -44 7 -13 7 -19 0 -19 -10 0 -20 10 -65 65 l-24 30 -1 -42 c0 -54 33 -142
74 -195 17 -24 55 -54 85 -70 96 -50 184 -30 262 61 45 52 54 57 78 42 31 -20
-72 -135 -153 -172 -90 -41 -189 -16 -266 67 -66 71 -94 143 -98 247 -7 158
18 225 46 128z m2613 -66 c27 -42 24 -53 -7 -24 -39 35 -84 99 -84 118 1 17
57 -41 91 -94z m-1097 60 c-9 -14 -18 -25 -20 -25 -2 0 -4 11 -4 25 0 18 5 25
20 25 20 0 20 -1 4 -25z m-1204 -5 c0 -12 -39 -12 -95 -1 -37 8 -35 9 28 10
39 1 67 -3 67 -9z m2520 -19 c0 -5 -28 -31 -62 -58 -81 -63 -89 -68 -82 -49 5
13 131 115 142 116 1 0 2 -4 2 -9z m-3003 -71 c-19 -23 -42 -64 -50 -93 -8
-29 -16 -44 -16 -35 -2 33 41 128 66 148 38 30 38 24 0 -20z m646 18 c-14 -16
-38 -18 -210 -18 -177 0 -193 1 -193 18 0 16 17 17 209 17 199 0 209 -1 194
-17z m2177 -116 c-27 -9 -159 106 -146 127 5 7 36 -15 82 -56 41 -38 70 -69
64 -71z m-2937 17 c30 -40 34 -51 12 -43 -25 10 -75 95 -74 128 l0 31 17 -40
c9 -23 29 -57 45 -76z m2766 56 c28 -19 41 -37 50 -68 20 -64 67 -148 117
-205 l46 -52 -34 0 c-18 0 -87 -5 -153 -10 -130 -11 -355 -3 -317 11 13 5 92
14 178 21 111 9 148 15 132 21 -29 11 -320 2 -509 -17 -79 -8 -173 -17 -209
-19 -61 -4 -63 -4 -35 9 l30 13 -32 1 c-17 0 -91 -9 -164 -20 -128 -19 -162
-19 -127 1 16 9 44 80 50 128 3 24 3 24 46 -12 43 -37 43 -42 -6 -57 -49 -15
287 -10 458 6 91 8 261 16 380 16 l215 0 -35 18 c-19 10 -64 22 -100 26 l-65
7 54 18 c76 26 76 33 -1 25 -44 -4 -67 -3 -70 4 -2 8 -12 8 -32 0 -16 -6 -37
-8 -47 -5 -11 4 -34 -2 -53 -14 -18 -12 -36 -21 -39 -21 -3 0 5 22 19 49 l25
48 86 6 c107 8 127 22 44 32 l-61 7 36 29 c45 36 73 36 123 4z m-1894 -170
c-5 -24 -4 -27 5 -15 9 12 10 11 5 -8 -8 -29 33 -101 46 -80 5 7 9 20 9 28 0
33 21 87 44 115 23 28 22 25 -5 -31 -19 -37 -31 -79 -32 -108 -2 -53 -16 -59
-45 -18 -23 32 -67 168 -75 232 l-5 45 29 -65 c21 -46 28 -73 24 -95z m-155
110 c54 -6 80 -18 80 -37 0 -21 -150 12 -171 38 -11 13 -9 15 12 10 13 -3 49
-8 79 -11z m-261 -45 c29 -15 87 -5 100 18 5 9 12 14 16 10 3 -3 -4 -15 -16
-27 -41 -38 -133 -19 -160 32 l-12 22 24 -21 c13 -12 35 -27 48 -34z m1332 7
c-8 -8 -11 -7 -11 4 0 20 13 34 18 19 3 -7 -1 -17 -7 -23z m-1782 -50 c23 -25
26 -26 33 -10 4 12 7 4 7 -22 1 -29 -2 -36 -9 -25 -5 8 -15 15 -22 15 -14 0
-58 72 -58 95 1 10 4 9 12 -5 6 -11 22 -33 37 -48z m3003 -81 l44 -26 59 56
c67 62 100 84 93 62 -3 -7 -31 -34 -64 -61 -32 -26 -60 -54 -62 -62 -4 -19 -4
-19 -63 10 -50 26 -149 113 -149 131 0 6 22 -11 49 -37 27 -26 68 -58 93 -73z
m-536 73 c7 -12 -12 -29 -34 -29 -10 0 -10 5 -2 20 12 22 25 26 36 9z m-1919
-65 c-3 -3 -12 -4 -19 -1 -8 3 -5 6 6 6 11 1 17 -2 13 -5z m1189 -42 c-12 -11
-18 7 -10 30 l8 23 4 -23 c2 -13 1 -26 -2 -30z m-719 -54 c-2 -18 -4 -4 -4 32
0 36 2 50 4 33 2 -18 2 -48 0 -65z m-937 46 c0 -2 -11 2 -25 8 -14 6 -25 15
-25 20 0 5 11 1 25 -8 14 -9 25 -18 25 -20z m3229 -1 c-20 -25 -51 -52 -74
-64 -11 -5 2 10 28 35 50 47 70 60 46 29z m-274 -43 c3 -5 2 -10 -4 -10 -5 0
-13 5 -16 10 -3 6 -2 10 4 10 5 0 13 -4 16 -10z m365 -37 c-11 -17 -11 -17 -6
0 3 10 6 24 7 30 0 9 2 9 5 0 3 -7 0 -20 -6 -30z m-3245 -36 c16 -15 -48 20
-70 38 -11 9 -2 7 20 -6 22 -12 45 -26 50 -32z m1524 -19 c-12 -20 -14 -21
-17 -5 -2 10 2 25 9 34 18 21 23 0 8 -29z m-584 -108 c10 -11 16 -20 13 -20
-3 0 -13 9 -23 20 -10 11 -16 20 -13 20 3 0 13 -9 23 -20z m85 -20 c6 -11 8
-20 6 -20 -3 0 -10 9 -16 20 -6 11 -8 20 -6 20 3 0 10 -9 16 -20z m-117 -17
c-7 -2 -19 -2 -25 0 -7 3 -2 5 12 5 14 0 19 -2 13 -5z"/>
<path d="M2950 4520 c0 -5 19 -14 43 -20 23 -6 55 -15 71 -20 24 -8 26 -7 17
4 -28 33 -131 62 -131 36z"/>
<path d="M2972 4190 c0 -19 2 -27 5 -17 2 9 2 25 0 35 -3 9 -5 1 -5 -18z"/>
<path d="M2518 3023 c18 -2 45 -2 60 0 15 2 0 4 -33 4 -33 0 -45 -2 -27 -4z"/>
<path d="M2533 2685 c-280 -36 -281 -45 -3 -20 157 14 190 20 190 36 0 5 -1 8
-2 8 -2 -1 -85 -12 -185 -24z"/>
<path d="M3520 2868 c-12 -22 -12 -22 6 -6 10 10 15 20 12 24 -4 3 -12 -5 -18
-18z"/>
<path d="M3684 2448 c-36 -39 -82 -97 -58 -73 27 26 106 115 102 115 -2 0 -22
-19 -44 -42z"/>
<path d="M1653 2463 c9 -2 23 -2 30 0 6 3 -1 5 -18 5 -16 0 -22 -2 -12 -5z"/>
<path d="M1670 2423 c-19 -10 -45 -34 -58 -53 -32 -47 -28 -137 8 -175 80 -85
243 -12 243 109 0 101 -104 165 -193 119z m123 -44 c51 -62 -11 -179 -94 -179
-23 0 -69 35 -69 53 0 5 8 0 18 -11 27 -31 55 -35 85 -12 65 51 46 170 -26
170 -8 0 -25 -9 -38 -21 l-24 -21 25 16 c32 21 46 20 70 -4 43 -43 13 -130
-45 -130 -35 0 -56 37 -52 88 5 45 20 70 52 82 27 10 76 -5 98 -31z m-166 -96
c-3 -10 -5 -4 -5 12 0 17 2 24 5 18 2 -7 2 -21 0 -30z"/>
<path d="M2355 2433 c-117 -14 -320 -46 -370 -58 l-60 -14 60 5 c66 6 454 63
470 69 12 4 -59 3 -100 -2z"/>
<path d="M1575 2100 c7 -12 119 -12 155 0 17 5 -6 8 -68 9 -60 1 -91 -3 -87
-9z"/>
<path d="M1573 2068 c2 -7 11 -13 20 -12 10 0 50 2 90 3 67 3 69 4 32 12 -65
13 -147 11 -142 -3z"/>
<path d="M1570 2024 c0 -15 9 -16 61 -10 34 3 74 7 88 7 29 2 -67 16 -116 18
-24 1 -33 -3 -33 -15z"/>
<path d="M1603 1983 c26 -2 67 -2 90 0 23 2 2 3 -48 3 -49 0 -68 -1 -42 -3z"/>
<path d="M1560 1946 c0 -18 46 -20 135 -6 50 7 50 7 10 9 -22 1 -64 4 -92 7
-45 6 -53 4 -53 -10z"/>
<path d="M3356 1668 c-2 -7 -11 -38 -20 -69 -9 -31 -16 -59 -16 -62 0 -4 43
-7 95 -7 52 0 95 3 95 8 0 13 -35 116 -43 130 -5 7 -29 12 -58 12 -31 0 -51
-5 -53 -12z"/>
<path d="M951 2344 c-41 -52 -22 -134 29 -134 58 0 80 91 34 141 -23 26 -39
24 -63 -7z m59 -13 c17 -32 12 -79 -9 -91 -25 -13 -27 -13 -45 6 -20 20 -20
53 0 82 19 27 40 28 54 3z"/>
<path d="M4195 1813 c-25 -24 -36 -60 -36 -119 -1 -65 7 -91 32 -105 26 -13
65 10 79 47 17 44 12 126 -10 162 -22 36 -40 40 -65 15z m15 -103 c0 -25 -10
-50 -21 -50 -10 0 -12 40 -3 64 8 20 24 11 24 -14z m60 -10 c0 -16 -4 -30 -10
-30 -5 0 -10 14 -10 30 0 17 5 30 10 30 6 0 10 -13 10 -30z m-59 -77 c13 -16
12 -17 -3 -4 -17 13 -22 21 -14 21 2 0 10 -8 17 -17z"/>
<path d="M2197 1730 c-71 -21 -139 -102 -184 -217 -21 -56 -26 -86 -27 -163
-1 -164 50 -282 144 -330 123 -63 232 -14 306 136 35 70 38 83 42 184 4 90 1
120 -16 177 -48 157 -158 245 -265 213z m28 -28 c-47 -12 -69 -25 -107 -63
-27 -27 -44 -41 -39 -31 15 28 84 90 111 101 14 5 41 10 60 9 30 0 26 -2 -25
-16z m74 -66 c43 -23 87 -79 111 -143 32 -84 26 -223 -13 -308 -45 -97 -101
-146 -184 -160 -85 -14 -176 76 -197 196 -5 28 -3 26 11 -11 23 -64 69 -127
105 -146 80 -41 182 10 237 119 62 120 52 289 -21 372 -17 20 -33 34 -35 31
-2 -2 10 -33 29 -67 30 -59 32 -71 33 -159 0 -87 -3 -100 -30 -149 -38 -69
-85 -101 -146 -101 -147 0 -222 220 -139 407 49 111 153 163 239 119z m-292
-238 c-3 -7 -5 -2 -5 12 0 14 2 19 5 13 2 -7 2 -19 0 -25z m0 -125 c-3 -10 -5
-2 -5 17 0 19 2 27 5 18 2 -10 2 -26 0 -35z"/>
<path d="M2193 1565 c-18 -8 -33 -21 -33 -30 0 -19 14 -19 30 0 7 8 31 18 53
22 33 5 37 8 22 14 -28 11 -36 10 -72 -6z"/>
<path d="M2113 1471 c-27 -25 -53 -81 -53 -117 0 -7 18 -14 40 -16 40 -3 40
-3 42 32 2 37 4 130 3 130 0 0 -15 -13 -32 -29z"/>
<path d="M2236 1455 c-35 -35 -41 -107 -14 -177 17 -44 68 -34 96 19 16 29 15
30 -8 36 -13 3 -20 14 -20 29 0 29 17 48 36 41 10 -4 12 0 8 13 -19 51 -67 70
-98 39z m12 -25 c-7 -10 -14 -17 -17 -15 -4 4 18 35 25 35 2 0 -1 -9 -8 -20z"/>
<path d="M2140 1220 c0 -15 61 -80 75 -80 7 0 -3 16 -21 36 -19 19 -34 40 -34
45 0 5 -4 9 -10 9 -5 0 -10 -4 -10 -10z"/>
<path d="M350 1974 c-115 -12 -201 -27 -206 -35 -3 -6 12 -6 38 -2 90 15 467
9 587 -10 115 -18 156 -17 83 2 -110 30 -403 56 -502 45z"/>
<path d="M415 1229 c-111 -19 -274 -62 -304 -79 -32 -19 43 -10 214 24 94 19
216 40 273 47 56 7 102 17 102 21 0 14 -173 7 -285 -13z"/>
<path d="M2820 948 c-58 -4 -123 -13 -145 -18 -31 -7 -23 -8 40 -4 44 4 190
12 325 19 l245 12 -180 0 c-99 0 -227 -4 -285 -9z"/>
<path d="M1565 920 l-50 -7 50 0 c28 -1 77 3 110 7 l60 7 -60 0 c-33 0 -82 -3
-110 -7z"/>
<path d="M4450 890 c-57 -21 -131 -69 -138 -89 -3 -8 9 -7 34 4 80 35 180 66
231 72 29 3 53 9 53 13 0 26 -107 26 -180 0z"/>
<path d="M558 873 c7 -3 16 -2 19 1 4 3 -2 6 -13 5 -11 0 -14 -3 -6 -6z"/>
<path d="M2730 870 c-12 -8 -10 -10 9 -10 14 0 39 -5 56 -11 20 -8 53 -9 90
-4 57 7 58 8 35 21 -29 15 -167 19 -190 4z"/>
<path d="M3712 756 c-69 -23 -178 -82 -232 -126 -22 -18 -19 -17 32 4 81 36
278 135 278 141 0 6 7 8 -78 -19z"/>
<path d="M2735 753 c-289 -15 -887 -114 -1006 -167 l-34 -15 30 5 c17 2 149
20 295 40 429 57 750 113 775 135 5 5 7 8 5 7 -3 -1 -32 -3 -65 -5z"/>
<path d="M774 721 c-104 -27 -188 -60 -154 -61 41 -1 319 58 370 79 21 8 13
10 -40 10 -39 0 -109 -11 -176 -28z"/>
<path d="M2931 605 c-98 -22 -183 -53 -225 -81 -20 -14 -36 -27 -34 -30 2 -2
62 11 133 28 97 24 154 32 223 33 96 0 109 7 72 40 -26 23 -91 28 -169 10z"/>
</g>
</svg>